Coordinates
version=1
nRows=32
nColumns=22
inDegrees=yes

Units are S.I. units (second, meters, Newtons, ...)
If the header above contains a line with 'inDegrees', this indicates whether rotational values are in degrees (yes) or radians (no).

endheader
time	pelvis_tilt	pelvis_list	pelvis_rotation	pelvis_tx	pelvis_ty	pelvis_tz	hip_flexion_r	hip_adduction_r	hip_rotation_r	knee_angle_r	ankle_angle_r	subtalar_angle_r	hip_flexion_l	hip_adduction_l	hip_rotation_l	knee_angle_l	ankle_angle_l	subtalar_angle_l	lumbar_extension	lumbar_bending	lumbar_rotation
      0.01000000	     -6.11555739	      2.84885866	   -169.41047306	      0.07001270	      0.95447084	      1.17208755	     -5.02602234	      5.16958495	     -9.39148333	     -8.48119570	     10.77076208	      5.94764048	     -1.48219825	     -5.45584570	    -14.93718684	    -16.95988105	     21.08441888	     -6.13644093	    -10.76807254	      4.42662648	     -8.17487790
      0.02000000	     -6.11144693	      2.83676878	   -169.34367593	      0.07003468	      0.95445758	      1.17213882	     -5.02339983	      5.16166415	     -9.49111604	     -8.48564370	     10.83981258	      5.99815850	     -1.46615526	     -5.44690243	    -14.87622630	    -16.95697536	     21.09102396	     -6.13969684	    -10.77152684	      4.43968523	     -8.18941556
      0.03000000	     -6.10344415	      2.82509362	   -169.29893945	      0.07004159	      0.95445193	      1.17212625	     -5.03044064	      5.15864791	     -9.51997879	     -8.46085731	     10.83561127	      6.00499961	     -1.45175532	     -5.44177161	    -14.85597829	    -16.95352937	     21.08622739	     -6.13893325	    -10.77234943	      4.44606124	     -8.16018671
      0.04000000	     -6.10128268	      2.81304255	   -169.21879360	      0.07006547	      0.95445463	      1.17217624	     -5.04307187	      5.15640549	     -9.60280575	     -8.43887197	     10.82014566	      6.02474690	     -1.44150289	     -5.43283351	    -14.76511365	    -16.93944287	     21.06721688	     -6.12881726	    -10.77980320	      4.46760850	     -8.19201842
      0.05000000	     -6.09333740	      2.79912312	   -169.17345491	      0.07007859	      0.95444945	      1.17214218	     -5.04919023	      5.15229267	     -9.62931597	     -8.41584699	     10.82277437	      6.02867259	     -1.42938812	     -5.42711870	    -14.74574783	    -16.93282064	     21.06081962	     -6.12520591	    -10.78624136	      4.47323679	     -8.15848627
      0.06000000	     -6.08902062	      2.78115198	   -169.09891851	      0.07010900	      0.95445378	      1.17215918	     -5.05730279	      5.14427989	     -9.70496894	     -8.39962385	     10.81984073	      6.03908490	     -1.42493521	     -5.41121619	    -14.65771750	    -16.90468373	     21.02931960	     -6.10437262	    -10.79865124	      4.48436213	     -8.17637722
      0.07000000	     -6.07948646	      2.76689582	   -169.05353695	      0.07013482	      0.95444525	      1.17209996	     -5.05913711	      5.14048953	     -9.72669652	     -8.38032854	     10.82323658	      6.04133642	     -1.41143126	     -5.40727717	    -14.64192720	    -16.89487354	     21.02192228	     -6.09867939	    -10.80812024	      4.48542919	     -8.13991807
      0.08000000	     -6.06703199	      2.74896682	   -168.98576787	      0.07019295	      0.95443787	      1.17209088	     -5.05180308	      5.12997542	     -9.79697542	     -8.37231300	     10.82656899	      6.04937298	     -1.39855162	     -5.39002626	    -14.55925074	    -16.86422810	     20.98357077	     -6.06709789	    -10.81668189	      4.49019777	     -8.13981755
      0.09000000	     -6.05514493	      2.73550044	   -168.94062602	      0.07025883	      0.95442401	      1.17201662	     -5.04776171	      5.12602784	     -9.82200718	     -8.35323219	     10.83154091	      6.05263754	     -1.37807693	     -5.38759091	    -14.54080825	    -16.85813413	     20.97434221	     -6.05831098	    -10.83012617	      4.48691216	     -8.09686443
      0.10000000	     -6.04074724	      2.72460793	   -168.89117723	      0.07035423	      0.95440541	      1.17195124	     -5.03558087	      5.12311626	     -9.86233258	     -8.33934031	     10.83741548	      6.05871905	     -1.35214919	     -5.38438906	    -14.50077321	    -16.85076725	     20.95537420	     -6.04345981	    -10.84250703	      4.48569207	     -8.04922596
      0.11000000	     -6.00673646	      2.71318012	   -168.82269080	      0.07050060	      0.95435881	      1.17193461	     -4.98207368	      5.10974864	     -9.95957861	     -8.36127728	     10.85461001	      6.08808569	     -1.30079684	     -5.37061413	    -14.41497205	    -16.83564857	     20.90821697	     -5.99321324	    -10.83476638	      4.48753618	     -8.05204198
      0.12000000	     -5.99336438	      2.70360644	   -168.78214128	      0.07062833	      0.95433700	      1.17186028	     -4.97016685	      5.10608956	     -9.98301903	     -8.34262215	     10.86322884	      6.09689177	     -1.26942044	     -5.37074227	    -14.39952887	    -16.83986449	     20.90370143	     -5.98415688	    -10.85181292	      4.48120503	     -7.99674342
      0.13000000	     -5.94630492	      2.70348292	   -168.72351385	      0.07079447	      0.95425682	      1.17183296	     -4.89227746	      5.09788306	    -10.07087010	     -8.37640376	     10.89687486	      6.15785150	     -1.19187691	     -5.36939209	    -14.33822320	    -16.84513202	     20.87825177	     -5.93022401	    -10.82930292	      4.48479295	     -7.97793011
      0.14000000	     -5.93234318	      2.69446244	   -168.68005297	      0.07090056	      0.95423103	      1.17178483	     -4.88362882	      5.09246558	    -10.08715420	     -8.35474528	     10.90411916	      6.16887670	     -1.16038685	     -5.36890864	    -14.32785322	    -16.84862558	     20.87827046	     -5.92191943	    -10.84099320	      4.47484032	     -7.92993745
      0.15000000	     -5.90933342	      2.68759998	   -168.62817555	      0.07098658	      0.95418788	      1.17175904	     -4.86437801	      5.08654824	    -10.11559983	     -8.33919380	     10.91670285	      6.18897568	     -1.11866722	     -5.36657402	    -14.29636269	    -16.85087355	     20.87603600	     -5.90435747	    -10.83899188	      4.46398376	     -7.88768892
      0.16000000	     -5.84584613	      2.68129680	   -168.54410645	      0.07105790	      0.95407623	      1.17179115	     -4.79175544	      5.07137161	    -10.16825025	     -8.35428743	     10.93089040	      6.23709069	     -1.02760373	     -5.35415875	    -14.21268583	    -16.85227265	     20.86539901	     -5.85001721	    -10.78079186	      4.44743310	     -7.91916663
      0.17000000	     -5.82662868	      2.66783606	   -168.48327679	      0.07106972	      0.95403005	      1.17178509	     -4.78777063	      5.05978758	    -10.16762981	     -8.34405429	     10.92159651	      6.23270486	     -0.99117852	     -5.34910383	    -14.19093397	    -16.86419932	     20.86678062	     -5.84046532	    -10.77563625	      4.41742405	     -7.88393281
      0.18000000	     -5.75823306	      2.65006101	   -168.39746549	      0.07105457	      0.95390625	      1.17182506	     -4.73758664	      5.03549093	    -10.14733274	     -8.34091465	     10.85235702	      6.13564501	     -0.90526493	     -5.32164706	    -14.09301871	    -16.86351205	     20.85732210	     -5.81466149	    -10.70547671	      4.37203303	     -7.91391727
      0.19000000	     -5.68551057	      2.64064053	   -168.30750862	      0.07106178	      0.95374792	      1.17188833	     -4.67600664	      5.01522322	    -10.11065776	     -8.36086684	     10.76507718	      5.75451832	     -0.78607098	     -5.30743805	    -13.99585834	    -16.91665080	     20.84768154	     -5.81058513	    -10.63544154	      4.33720865	     -7.92123757
      0.20000000	     -5.62775112	      2.60541554	   -168.22615092	      0.07103582	      0.95360862	      1.17195854	     -4.65013230	      4.97011396	    -10.00287448	     -8.37740985	     10.58655069	      5.25495603	     -0.70038207	     -5.26281825	    -13.88748960	    -16.95440016	     20.86038663	     -5.81679971	    -10.58693984	      4.27211524	     -7.94006421
      0.21000000	     -5.56711725	      2.56048156	   -168.14372310	      0.07097958	      0.95342865	      1.17203585	     -4.62362235	      4.91109725	     -9.88703565	     -8.41597414	     10.40529149	      4.43537215	     -0.59112695	     -5.21492043	    -13.79519852	    -17.04388350	     20.92453613	     -5.82872056	    -10.53189689	      4.19014767	     -7.97652986
      0.22000000	     -5.50934121	      2.52676181	   -168.05761312	      0.07093824	      0.95323951	      1.17212646	     -4.59667772	      4.86345374	     -9.75023047	     -8.46258130	     10.13435908	      3.57427092	     -0.46282689	     -5.17788873	    -13.65706626	    -17.16879704	     20.99202399	     -5.84022022	    -10.48283232	      4.12311753	     -8.01545871
      0.23000000	     -5.46489620	      2.52688272	   -167.96682545	      0.07090653	      0.95305815	      1.17223094	     -4.56829709	      4.85372258	     -9.62771036	     -8.51975445	      9.81083454	      2.82065236	     -0.31689002	     -5.17790537	    -13.45583858	    -17.33842343	     21.05803769	     -5.85440689	    -10.44693544	      4.10049102	     -8.03840874
      0.24000000	     -5.42965719	      2.53188000	   -167.88500226	      0.07085846	      0.95286481	      1.17231918	     -4.52814097	      4.84868882	     -9.54574031	     -8.60650162	      9.61254903	      2.04191920	     -0.14368812	     -5.19388425	    -13.27510822	    -17.58504601	     21.23316739	     -5.87229997	    -10.42270779	      4.08129619	     -8.07182769
      0.25000000	     -5.41778207	      2.55903299	   -167.80688132	      0.07080376	      0.95269826	      1.17240223	     -4.49516071	      4.87326706	     -9.49361328	     -8.70157664	      9.49732744	      1.50316280	      0.04747985	     -5.24254177	    -13.07791161	    -17.90695029	     21.41217542	     -5.90038573	    -10.42750040	      4.09115953	     -8.09287678
      0.26000000	     -5.42321736	      2.60550446	   -167.73233379	      0.07072933	      0.95254703	      1.17248131	     -4.46571528	      4.92345009	     -9.46414990	     -8.80188177	      9.43251469	      1.17335321	      0.25938764	     -5.31748037	    -12.85444661	    -18.29668607	     21.63549809	     -5.93765114	    -10.45214462	      4.12358558	     -8.11036220
      0.27000000	     -5.45542718	      2.68425410	   -167.66174129	      0.07064485	      0.95241169	      1.17255791	     -4.44309243	      5.01544218	     -9.43613456	     -8.91807364	      9.44101108	      0.99474270	      0.48392427	     -5.43005981	    -12.58135004	    -18.75119703	     21.90278398	     -5.99118096	    -10.51070614	      4.19921125	     -8.12506110
      0.28000000	     -5.46206476	      2.80632970	   -167.59911955	      0.07057789	      0.95220814	      1.17265594	     -4.34906246	      5.14224877	     -9.41874199	     -9.08819274	      9.47826077	      0.85693749	      0.78854960	     -5.57573216	    -12.25672392	    -19.28289171	     22.17618329	     -6.14383095	    -10.54107366	      4.32501908	     -8.12064837
      0.29000000	     -5.50451619	      2.93625601	   -167.53546547	      0.07045836	      0.95202955	      1.17278951	     -4.29757314	      5.28754163	     -9.40305420	     -9.24554179	      9.55881359	      0.83423238	      1.08071302	     -5.73071646	    -11.90244259	    -19.86272708	     22.47874536	     -6.34336447	    -10.61488942	      4.46596138	     -8.10453649
      0.30000000	     -5.54705262	      3.08002623	   -167.47746511	      0.07030416	      0.95182267	      1.17297646	     -4.23239324	      5.44414619	     -9.37863313	     -9.42354412	      9.66747140	      0.86066049	      1.38967592	     -5.88496159	    -11.50614575	    -20.47021181	     22.78520181	     -6.65047108	    -10.69066779	      4.62575344	     -8.06784792
      0.31000000	     -5.61483336	      3.22353492	   -167.42739250	      0.07010948	      0.95162485	      1.17322564	     -4.18072525	      5.60180569	     -9.33356138	     -9.63192780	      9.78509600	      0.90196106	      1.66664094	     -6.02827095	    -11.09294319	    -21.07337622	     23.11042930	     -7.01213902	    -10.80135069	      4.79649697	     -8.03916850
      0.32000000	     -5.68673778	      3.35963235	   -167.38709780	      0.06986321	      0.95141486	      1.17355606	     -4.12885501	      5.74690882	     -9.27294555	     -9.85760058	      9.94085886	      0.94323945	      1.91978808	     -6.14307618	    -10.65583042	    -21.65257547	     23.41694345	     -7.50220407	    -10.91989277	      4.96437227	     -7.97986802
